# xmcd
#
# Track frame offsets:
#	150
#	11600
#	29527
#	49457
#	70550
#	95892
#	110377
#	123820
#	140287
#	158837
#	191120
#
# Disc length: 2885 seconds
#
# Revision: 1
# Processed by: cddbd v1.5PL3 Copyright (c) Steve Scherf et al.
# Submitted via: CDex 1.50Beta5
#
DISCID=950b430b
DTITLE=山下久美子 - LIVE-best collection-
DYEAR=1989
DGENRE=Pop
TTITLE0=バスルームから愛をこめて
TTITLE1=恋のミッドナイトD.J.
TTITLE2=シャンプー
TTITLE3=抱きしめてオンリー・ユー
TTITLE4=時代遅れの恋心
TTITLE5=Baby Baby
TTITLE6=So Young
TTITLE7=赤道小町ドキッ
TTITLE8=マラソン恋女
TTITLE9=Silver Girl,A
TTITLE10=ジプシー・ソング
EXTD=
EXTT0=
EXTT1=
EXTT2=
EXTT3=
EXTT4=
EXTT5=
EXTT6=
EXTT7=
EXTT8=
EXTT9=
EXTT10=
PLAYORDER=
